<svg width="24" height="24" viewBox="0 0 24 24" fill="none" xmlns="http://www.w3.org/2000/svg">
<path d="M12 17.25C14.0711 17.25 15.75 15.5711 15.75 13.5C15.75 11.4289 14.0711 9.75 12 9.75C9.92893 9.75 8.25 11.4289 8.25 13.5C8.25 15.5711 9.92893 17.25 12 17.25Z" stroke="currentColor" stroke-width="2" stroke-linecap="round" stroke-linejoin="round"/>
<path d="M6.75 20.25C7.2884 19.3364 8.0559 18.579 8.97665 18.0529C9.8974 17.5267 10.9395 17.25 12 17.25C13.0605 17.25 14.1026 17.5267 15.0233 18.0529C15.9441 18.579 16.7116 19.3364 17.25 20.25" stroke="currentColor" stroke-width="2" stroke-linecap="round" stroke-linejoin="round"/>
<path d="M15.375 6.80157C15.6078 6.37965 15.9389 6.02004 16.3402 5.75316C16.7414 5.48628 17.201 5.31999 17.6802 5.26836C18.1593 5.21674 18.6438 5.28129 19.0927 5.45657C19.5416 5.63184 19.9417 5.91268 20.259 6.2753C20.5764 6.63793 20.8018 7.07168 20.916 7.53984C21.0303 8.008 21.0301 8.49679 20.9154 8.96486C20.8008 9.43292 20.575 9.86648 20.2574 10.2288C19.9397 10.5912 19.5394 10.8717 19.0903 11.0466C20.4337 11.3372 21.705 12.4378 22.5028 13.5" stroke="currentColor" stroke-width="2" stroke-linecap="round" stroke-linejoin="round"/>
<path d="M1.5 13.5C2.29781 12.4378 3.56813 11.3372 4.9125 11.0466C4.46302 10.8722 4.06219 10.592 3.74396 10.2298C3.42574 9.86761 3.1995 9.43406 3.0844 8.96587C2.96931 8.49768 2.96875 8.00864 3.08277 7.54019C3.1968 7.07174 3.42205 6.63767 3.73944 6.27475C4.05684 5.91183 4.45702 5.63075 4.90611 5.45533C5.35519 5.2799 5.83994 5.2153 6.31929 5.26699C6.79864 5.31867 7.25847 5.48513 7.65984 5.75226C8.0612 6.01939 8.39227 6.37931 8.625 6.80155" stroke="currentColor" stroke-width="2" stroke-linecap="round" stroke-linejoin="round"/>
</svg>
